<?xml version="1.0" standalone="no"?>
<!DOCTYPE svg PUBLIC "-//W3C//DTD SVG 20010904//EN"
 "http://www.w3.org/TR/2001/REC-SVG-20010904/DTD/svg10.dtd">
<svg version="1.0" xmlns="http://www.w3.org/2000/svg"
 width="500.000000pt" height="500.000000pt" viewBox="0 0 500.000000 500.000000"
 preserveAspectRatio="xMidYMid meet">

<g transform="translate(0.000000,500.000000) scale(0.100000,-0.100000)"
fill="#000000" stroke="none">
<path d="M1880 2495 l0 -755 65 0 65 0 2 621 3 621 215 -167 c118 -92 227
-176 243 -187 l27 -19 0 83 0 83 -198 151 c-108 83 -248 191 -309 238 l-113
87 0 -756z"/>
<path d="M1670 2445 l0 -705 65 0 65 0 0 658 0 657 -60 48 c-32 26 -62 47 -65
47 -3 0 -5 -317 -5 -705z"/>
<path d="M2984 2857 c-187 -144 -367 -284 -402 -310 l-62 -48 -177 138 c-98
76 -197 153 -220 171 l-43 33 0 -84 0 -84 58 -44 c31 -25 130 -102 220 -173
l163 -127 202 159 c318 249 464 362 471 362 3 0 6 -250 6 -555 l0 -555 65 0
65 0 0 690 c0 380 -2 690 -4 690 -2 0 -156 -118 -342 -263z"/>
<path d="M2820 2459 l-305 -240 -3 -85 -3 -85 103 79 c57 43 166 127 243 186
l140 108 3 -341 2 -341 65 0 65 0 0 480 c0 264 -1 480 -2 479 -2 0 -140 -108
-308 -240z"/>
</g>
</svg>
